<mxfile host="app.diagrams.net" agent="Mozilla/5.0 (Windows NT 10.0; Win64; x64) AppleWebKit/537.36 (KHTML, like Gecko) Chrome/129.0.0.0 Safari/537.36" version="24.7.17">
  <diagram name="Page-1" id="Z6UC6kJmmKQaEiQ-KVF1">
    <mxGraphModel dx="1050" dy="530" grid="1" gridSize="10" guides="1" tooltips="1" connect="1" arrows="1" fold="1" page="1" pageScale="1" pageWidth="850" pageHeight="1100" math="0" shadow="0">
      <root>
        <mxCell id="0" />
        <mxCell id="1" parent="0" />
        <mxCell id="4RfAdgiz0h4Fbkndl-a6-3" style="edgeStyle=orthogonalEdgeStyle;rounded=0;orthogonalLoop=1;jettySize=auto;html=1;exitX=0.5;exitY=1;exitDx=0;exitDy=0;exitPerimeter=0;" edge="1" parent="1" source="4RfAdgiz0h4Fbkndl-a6-2">
          <mxGeometry relative="1" as="geometry">
            <mxPoint x="385" y="140" as="targetPoint" />
          </mxGeometry>
        </mxCell>
        <mxCell id="4RfAdgiz0h4Fbkndl-a6-2" value="Start" style="strokeWidth=2;html=1;shape=mxgraph.flowchart.terminator;whiteSpace=wrap;" vertex="1" parent="1">
          <mxGeometry x="335" y="40" width="100" height="60" as="geometry" />
        </mxCell>
        <mxCell id="4RfAdgiz0h4Fbkndl-a6-6" style="edgeStyle=orthogonalEdgeStyle;rounded=0;orthogonalLoop=1;jettySize=auto;html=1;exitX=0.5;exitY=1;exitDx=0;exitDy=0;" edge="1" parent="1">
          <mxGeometry relative="1" as="geometry">
            <mxPoint x="385" y="240" as="targetPoint" />
            <mxPoint x="385" y="200" as="sourcePoint" />
          </mxGeometry>
        </mxCell>
        <mxCell id="4RfAdgiz0h4Fbkndl-a6-5" value="Would you like&lt;div&gt;to (create account)&lt;/div&gt;&lt;div&gt;or (login)?&lt;/div&gt;" style="shape=parallelogram;perimeter=parallelogramPerimeter;whiteSpace=wrap;html=1;fixedSize=1;" vertex="1" parent="1">
          <mxGeometry x="320" y="140" width="130" height="60" as="geometry" />
        </mxCell>
        <mxCell id="4RfAdgiz0h4Fbkndl-a6-20" style="edgeStyle=orthogonalEdgeStyle;rounded=0;orthogonalLoop=1;jettySize=auto;html=1;exitX=0;exitY=0.5;exitDx=0;exitDy=0;" edge="1" parent="1" source="4RfAdgiz0h4Fbkndl-a6-13">
          <mxGeometry relative="1" as="geometry">
            <mxPoint x="240" y="360" as="targetPoint" />
          </mxGeometry>
        </mxCell>
        <mxCell id="4RfAdgiz0h4Fbkndl-a6-22" value="Login" style="edgeLabel;html=1;align=center;verticalAlign=middle;resizable=0;points=[];" vertex="1" connectable="0" parent="4RfAdgiz0h4Fbkndl-a6-20">
          <mxGeometry x="0.1721" y="4" relative="1" as="geometry">
            <mxPoint as="offset" />
          </mxGeometry>
        </mxCell>
        <mxCell id="4RfAdgiz0h4Fbkndl-a6-21" style="edgeStyle=orthogonalEdgeStyle;rounded=0;orthogonalLoop=1;jettySize=auto;html=1;exitX=1;exitY=0.5;exitDx=0;exitDy=0;" edge="1" parent="1" source="4RfAdgiz0h4Fbkndl-a6-13">
          <mxGeometry relative="1" as="geometry">
            <mxPoint x="540" y="360" as="targetPoint" />
          </mxGeometry>
        </mxCell>
        <mxCell id="4RfAdgiz0h4Fbkndl-a6-23" value="Create Account" style="edgeLabel;html=1;align=center;verticalAlign=middle;resizable=0;points=[];" vertex="1" connectable="0" parent="4RfAdgiz0h4Fbkndl-a6-21">
          <mxGeometry x="0.2626" y="1" relative="1" as="geometry">
            <mxPoint as="offset" />
          </mxGeometry>
        </mxCell>
        <mxCell id="4RfAdgiz0h4Fbkndl-a6-13" value="Was input&lt;div&gt;login, or create account?&lt;/div&gt;" style="rhombus;whiteSpace=wrap;html=1;" vertex="1" parent="1">
          <mxGeometry x="335" y="240" width="100" height="100" as="geometry" />
        </mxCell>
        <mxCell id="4RfAdgiz0h4Fbkndl-a6-27" style="edgeStyle=orthogonalEdgeStyle;rounded=0;orthogonalLoop=1;jettySize=auto;html=1;exitX=0.5;exitY=1;exitDx=0;exitDy=0;" edge="1" parent="1" source="4RfAdgiz0h4Fbkndl-a6-24">
          <mxGeometry relative="1" as="geometry">
            <mxPoint x="240" y="460" as="targetPoint" />
          </mxGeometry>
        </mxCell>
        <mxCell id="4RfAdgiz0h4Fbkndl-a6-24" value="Enter Username:" style="shape=parallelogram;perimeter=parallelogramPerimeter;whiteSpace=wrap;html=1;fixedSize=1;" vertex="1" parent="1">
          <mxGeometry x="180" y="360" width="120" height="60" as="geometry" />
        </mxCell>
        <mxCell id="4RfAdgiz0h4Fbkndl-a6-31" style="edgeStyle=orthogonalEdgeStyle;rounded=0;orthogonalLoop=1;jettySize=auto;html=1;exitX=0.5;exitY=1;exitDx=0;exitDy=0;" edge="1" parent="1" source="4RfAdgiz0h4Fbkndl-a6-26">
          <mxGeometry relative="1" as="geometry">
            <mxPoint x="540" y="460" as="targetPoint" />
          </mxGeometry>
        </mxCell>
        <mxCell id="4RfAdgiz0h4Fbkndl-a6-26" value="Enter Username:" style="shape=parallelogram;perimeter=parallelogramPerimeter;whiteSpace=wrap;html=1;fixedSize=1;" vertex="1" parent="1">
          <mxGeometry x="480" y="360" width="120" height="60" as="geometry" />
        </mxCell>
        <mxCell id="4RfAdgiz0h4Fbkndl-a6-42" style="edgeStyle=orthogonalEdgeStyle;rounded=0;orthogonalLoop=1;jettySize=auto;html=1;exitX=0.5;exitY=1;exitDx=0;exitDy=0;entryX=0.5;entryY=0;entryDx=0;entryDy=0;" edge="1" parent="1" source="4RfAdgiz0h4Fbkndl-a6-28" target="4RfAdgiz0h4Fbkndl-a6-41">
          <mxGeometry relative="1" as="geometry" />
        </mxCell>
        <mxCell id="4RfAdgiz0h4Fbkndl-a6-28" value="Enter Password:" style="shape=parallelogram;perimeter=parallelogramPerimeter;whiteSpace=wrap;html=1;fixedSize=1;" vertex="1" parent="1">
          <mxGeometry x="180" y="460" width="120" height="60" as="geometry" />
        </mxCell>
        <mxCell id="4RfAdgiz0h4Fbkndl-a6-37" style="edgeStyle=orthogonalEdgeStyle;rounded=0;orthogonalLoop=1;jettySize=auto;html=1;exitX=0.5;exitY=1;exitDx=0;exitDy=0;" edge="1" parent="1" source="4RfAdgiz0h4Fbkndl-a6-29">
          <mxGeometry relative="1" as="geometry">
            <mxPoint x="540" y="740" as="targetPoint" />
          </mxGeometry>
        </mxCell>
        <mxCell id="4RfAdgiz0h4Fbkndl-a6-29" value="Enter Password:" style="shape=parallelogram;perimeter=parallelogramPerimeter;whiteSpace=wrap;html=1;fixedSize=1;" vertex="1" parent="1">
          <mxGeometry x="480" y="630" width="120" height="60" as="geometry" />
        </mxCell>
        <mxCell id="4RfAdgiz0h4Fbkndl-a6-33" style="edgeStyle=orthogonalEdgeStyle;rounded=0;orthogonalLoop=1;jettySize=auto;html=1;exitX=1;exitY=0.5;exitDx=0;exitDy=0;" edge="1" parent="1" source="4RfAdgiz0h4Fbkndl-a6-32">
          <mxGeometry relative="1" as="geometry">
            <mxPoint x="680" y="520" as="targetPoint" />
          </mxGeometry>
        </mxCell>
        <mxCell id="4RfAdgiz0h4Fbkndl-a6-57" value="Yes" style="edgeLabel;html=1;align=center;verticalAlign=middle;resizable=0;points=[];" vertex="1" connectable="0" parent="4RfAdgiz0h4Fbkndl-a6-33">
          <mxGeometry x="-0.1877" relative="1" as="geometry">
            <mxPoint as="offset" />
          </mxGeometry>
        </mxCell>
        <mxCell id="4RfAdgiz0h4Fbkndl-a6-36" style="edgeStyle=orthogonalEdgeStyle;rounded=0;orthogonalLoop=1;jettySize=auto;html=1;exitX=0.5;exitY=1;exitDx=0;exitDy=0;" edge="1" parent="1" source="4RfAdgiz0h4Fbkndl-a6-32">
          <mxGeometry relative="1" as="geometry">
            <mxPoint x="540" y="630" as="targetPoint" />
          </mxGeometry>
        </mxCell>
        <mxCell id="4RfAdgiz0h4Fbkndl-a6-58" value="No" style="edgeLabel;html=1;align=center;verticalAlign=middle;resizable=0;points=[];" vertex="1" connectable="0" parent="4RfAdgiz0h4Fbkndl-a6-36">
          <mxGeometry x="-0.2634" relative="1" as="geometry">
            <mxPoint as="offset" />
          </mxGeometry>
        </mxCell>
        <mxCell id="4RfAdgiz0h4Fbkndl-a6-32" value="Is username already associated with a&amp;nbsp;&lt;div&gt;account?&lt;/div&gt;" style="rhombus;whiteSpace=wrap;html=1;" vertex="1" parent="1">
          <mxGeometry x="456.25" y="460" width="167.5" height="120" as="geometry" />
        </mxCell>
        <mxCell id="4RfAdgiz0h4Fbkndl-a6-35" style="edgeStyle=orthogonalEdgeStyle;rounded=0;orthogonalLoop=1;jettySize=auto;html=1;exitX=0.5;exitY=0;exitDx=0;exitDy=0;entryX=1;entryY=0.5;entryDx=0;entryDy=0;" edge="1" parent="1" source="4RfAdgiz0h4Fbkndl-a6-34" target="4RfAdgiz0h4Fbkndl-a6-26">
          <mxGeometry relative="1" as="geometry">
            <Array as="points">
              <mxPoint x="730" y="390" />
            </Array>
          </mxGeometry>
        </mxCell>
        <mxCell id="4RfAdgiz0h4Fbkndl-a6-34" value="Username&lt;div&gt;already taken&lt;/div&gt;" style="shape=parallelogram;perimeter=parallelogramPerimeter;whiteSpace=wrap;html=1;fixedSize=1;" vertex="1" parent="1">
          <mxGeometry x="670" y="490" width="120" height="60" as="geometry" />
        </mxCell>
        <mxCell id="4RfAdgiz0h4Fbkndl-a6-39" style="edgeStyle=orthogonalEdgeStyle;rounded=0;orthogonalLoop=1;jettySize=auto;html=1;exitX=0.5;exitY=1;exitDx=0;exitDy=0;" edge="1" parent="1" source="4RfAdgiz0h4Fbkndl-a6-38">
          <mxGeometry relative="1" as="geometry">
            <mxPoint x="540" y="880" as="targetPoint" />
          </mxGeometry>
        </mxCell>
        <mxCell id="4RfAdgiz0h4Fbkndl-a6-38" value="Save account in a database" style="whiteSpace=wrap;html=1;aspect=fixed;" vertex="1" parent="1">
          <mxGeometry x="490" y="740" width="100" height="100" as="geometry" />
        </mxCell>
        <mxCell id="4RfAdgiz0h4Fbkndl-a6-40" value="End" style="strokeWidth=2;html=1;shape=mxgraph.flowchart.terminator;whiteSpace=wrap;" vertex="1" parent="1">
          <mxGeometry x="490" y="880" width="100" height="60" as="geometry" />
        </mxCell>
        <mxCell id="4RfAdgiz0h4Fbkndl-a6-43" style="edgeStyle=orthogonalEdgeStyle;rounded=0;orthogonalLoop=1;jettySize=auto;html=1;exitX=0;exitY=0.5;exitDx=0;exitDy=0;entryX=0.5;entryY=1;entryDx=0;entryDy=0;" edge="1" parent="1" source="4RfAdgiz0h4Fbkndl-a6-41" target="4RfAdgiz0h4Fbkndl-a6-45">
          <mxGeometry relative="1" as="geometry">
            <mxPoint x="60" y="520" as="targetPoint" />
          </mxGeometry>
        </mxCell>
        <mxCell id="4RfAdgiz0h4Fbkndl-a6-44" value="No" style="edgeLabel;html=1;align=center;verticalAlign=middle;resizable=0;points=[];" vertex="1" connectable="0" parent="4RfAdgiz0h4Fbkndl-a6-43">
          <mxGeometry x="0.2342" y="1" relative="1" as="geometry">
            <mxPoint as="offset" />
          </mxGeometry>
        </mxCell>
        <mxCell id="4RfAdgiz0h4Fbkndl-a6-47" style="edgeStyle=orthogonalEdgeStyle;rounded=0;orthogonalLoop=1;jettySize=auto;html=1;exitX=0.5;exitY=1;exitDx=0;exitDy=0;" edge="1" parent="1" source="4RfAdgiz0h4Fbkndl-a6-41">
          <mxGeometry relative="1" as="geometry">
            <mxPoint x="240" y="760" as="targetPoint" />
          </mxGeometry>
        </mxCell>
        <mxCell id="4RfAdgiz0h4Fbkndl-a6-49" value="Yes" style="edgeLabel;html=1;align=center;verticalAlign=middle;resizable=0;points=[];" vertex="1" connectable="0" parent="4RfAdgiz0h4Fbkndl-a6-47">
          <mxGeometry x="0.1259" y="2" relative="1" as="geometry">
            <mxPoint as="offset" />
          </mxGeometry>
        </mxCell>
        <mxCell id="4RfAdgiz0h4Fbkndl-a6-41" value="Is Inputted account&lt;div&gt;associated with&lt;/div&gt;&lt;div&gt;a real account?&amp;nbsp;&lt;/div&gt;" style="rhombus;whiteSpace=wrap;html=1;" vertex="1" parent="1">
          <mxGeometry x="164.06" y="580" width="151.87" height="120" as="geometry" />
        </mxCell>
        <mxCell id="4RfAdgiz0h4Fbkndl-a6-46" style="edgeStyle=orthogonalEdgeStyle;rounded=0;orthogonalLoop=1;jettySize=auto;html=1;exitX=0.5;exitY=0;exitDx=0;exitDy=0;entryX=0;entryY=0.5;entryDx=0;entryDy=0;" edge="1" parent="1" source="4RfAdgiz0h4Fbkndl-a6-45" target="4RfAdgiz0h4Fbkndl-a6-5">
          <mxGeometry relative="1" as="geometry">
            <Array as="points">
              <mxPoint x="60" y="170" />
            </Array>
          </mxGeometry>
        </mxCell>
        <mxCell id="4RfAdgiz0h4Fbkndl-a6-45" value="sorry account&amp;nbsp;&lt;div&gt;&lt;span style=&quot;background-color: initial;&quot;&gt;does not match records&lt;/span&gt;&lt;/div&gt;" style="shape=parallelogram;perimeter=parallelogramPerimeter;whiteSpace=wrap;html=1;fixedSize=1;" vertex="1" parent="1">
          <mxGeometry y="330" width="120" height="60" as="geometry" />
        </mxCell>
        <mxCell id="4RfAdgiz0h4Fbkndl-a6-50" style="edgeStyle=orthogonalEdgeStyle;rounded=0;orthogonalLoop=1;jettySize=auto;html=1;exitX=0;exitY=0.5;exitDx=0;exitDy=0;" edge="1" parent="1" source="4RfAdgiz0h4Fbkndl-a6-48">
          <mxGeometry relative="1" as="geometry">
            <mxPoint x="60" y="640" as="targetPoint" />
          </mxGeometry>
        </mxCell>
        <mxCell id="4RfAdgiz0h4Fbkndl-a6-51" value="No" style="edgeLabel;html=1;align=center;verticalAlign=middle;resizable=0;points=[];" vertex="1" connectable="0" parent="4RfAdgiz0h4Fbkndl-a6-50">
          <mxGeometry x="-0.56" y="-3" relative="1" as="geometry">
            <mxPoint as="offset" />
          </mxGeometry>
        </mxCell>
        <mxCell id="4RfAdgiz0h4Fbkndl-a6-52" style="edgeStyle=orthogonalEdgeStyle;rounded=0;orthogonalLoop=1;jettySize=auto;html=1;exitX=0.5;exitY=1;exitDx=0;exitDy=0;" edge="1" parent="1" source="4RfAdgiz0h4Fbkndl-a6-48">
          <mxGeometry relative="1" as="geometry">
            <mxPoint x="240" y="940" as="targetPoint" />
          </mxGeometry>
        </mxCell>
        <mxCell id="4RfAdgiz0h4Fbkndl-a6-53" value="Yes" style="edgeLabel;html=1;align=center;verticalAlign=middle;resizable=0;points=[];" vertex="1" connectable="0" parent="4RfAdgiz0h4Fbkndl-a6-52">
          <mxGeometry x="-0.131" y="-1" relative="1" as="geometry">
            <mxPoint as="offset" />
          </mxGeometry>
        </mxCell>
        <mxCell id="4RfAdgiz0h4Fbkndl-a6-48" value="Is password&amp;nbsp;&lt;div&gt;associated with&lt;/div&gt;&lt;div&gt;inputted account&lt;/div&gt;&lt;div&gt;correct?&amp;nbsp;&lt;/div&gt;" style="rhombus;whiteSpace=wrap;html=1;" vertex="1" parent="1">
          <mxGeometry x="177.03" y="760" width="125.93" height="120" as="geometry" />
        </mxCell>
        <mxCell id="4RfAdgiz0h4Fbkndl-a6-55" style="edgeStyle=orthogonalEdgeStyle;rounded=0;orthogonalLoop=1;jettySize=auto;html=1;exitX=0.5;exitY=1;exitDx=0;exitDy=0;" edge="1" parent="1" source="4RfAdgiz0h4Fbkndl-a6-54">
          <mxGeometry relative="1" as="geometry">
            <mxPoint x="240" y="1040" as="targetPoint" />
          </mxGeometry>
        </mxCell>
        <mxCell id="4RfAdgiz0h4Fbkndl-a6-54" value="welcome,&amp;nbsp;&lt;div&gt;[inputted username here]&lt;/div&gt;" style="shape=parallelogram;perimeter=parallelogramPerimeter;whiteSpace=wrap;html=1;fixedSize=1;" vertex="1" parent="1">
          <mxGeometry x="175" y="940" width="130" height="60" as="geometry" />
        </mxCell>
        <mxCell id="4RfAdgiz0h4Fbkndl-a6-56" value="End" style="strokeWidth=2;html=1;shape=mxgraph.flowchart.terminator;whiteSpace=wrap;" vertex="1" parent="1">
          <mxGeometry x="190" y="1040" width="100" height="60" as="geometry" />
        </mxCell>
      </root>
    </mxGraphModel>
  </diagram>
</mxfile>
